<svg width="266" height="351" viewBox="0 0 266 351" fill="none" xmlns="http://www.w3.org/2000/svg">
<path fill-rule="evenodd" clip-rule="evenodd" d="M108.262 61.4901C103.654 56.0813 100.536 49.4528 101.057 42.0254C102.558 20.6249 132.349 25.3328 138.143 36.1339C143.938 46.935 143.25 74.3329 135.76 76.2634C132.774 77.0333 126.411 75.1474 119.935 71.2442L124 99.9999H100L108.262 61.4901Z" fill="#96673C"/>
<path fill-rule="evenodd" clip-rule="evenodd" d="M128.664 24.3699C125.384 23.3699 120.623 23.0308 118.621 23.2602C119.76 20.5308 120.212 17.4899 119.844 14.529C119.485 11.652 118.2 9.20231 117.011 6.63532C116.463 5.4521 115.842 4.27534 114.916 3.37032C113.972 2.44828 112.778 1.83967 111.526 1.5493C110.245 1.25209 108.905 1.27684 107.622 1.54656C107.054 1.66587 106.545 1.92544 105.988 2.06973C105.418 2.21757 105.141 1.86071 104.727 1.50207C103.73 0.637913 102.268 0.211317 101.006 0.0586394C99.5904 -0.112579 98.1215 0.10096 96.7714 0.56633C95.4572 1.01937 94.1948 1.75502 93.2447 2.82675C92.8217 3.30381 92.4377 3.84681 92.1881 4.44632C92.0857 4.69234 92.0688 4.83809 91.8233 4.92821C91.5963 5.01164 91.3307 5.01406 91.0964 5.09346C88.8305 5.86088 86.8933 7.6116 85.8384 9.85945C85.223 11.1708 84.9315 13.4797 85.0113 16.0676C85.0912 18.6555 87.4279 25.408 89.6134 27.871C91.5643 30.0694 94.4317 31.5202 97.1991 32.1553C95.3622 34.2548 94.1395 36.8784 93.2353 39.5466C92.2532 42.445 91.6454 45.4565 91.4209 48.525C91.2077 51.4404 91.188 54.5235 91.8715 57.3766C92.5108 60.0448 93.8782 62.2336 96.1608 63.6222C97.2063 64.2583 98.3313 64.7362 99.4627 65.173C100.578 65.6033 101.696 66.0218 102.864 66.2633C105.075 66.7202 107.622 66.6418 109.325 64.8822C109.939 64.2479 110.614 63.4508 111.061 62.6759C111.222 62.3972 111.32 62.2149 111.124 61.9425C110.89 61.6163 110.511 61.3663 110.21 61.1111C108.493 59.656 107.43 57.7134 107.163 55.4049C106.891 53.0625 107.52 50.0392 109.797 49.017C112.608 47.7551 115.704 49.2035 118.203 50.5537C119.265 46.8059 121.445 43.4314 124.863 41.7123C128.645 39.8104 132.985 39.5879 136.871 37.9561C137.884 37.5308 138.915 37.0481 139.661 36.1817C139.973 35.8196 140.338 35.3499 140.463 34.871C140.626 34.2419 140.22 33.7145 139.907 33.224C138.245 30.6236 131.943 25.3699 128.664 24.3699Z" fill="#191847"/>
<path fill-rule="evenodd" clip-rule="evenodd" d="M218.884 201.096C226.064 191.358 244.011 197.804 244 205.866C243.972 227.031 224.657 327.512 223.648 333.856C222.64 340.2 211.837 342.275 211.208 334.348C210.207 321.736 208.347 278.013 210.208 257.672C210.751 251.73 211.324 245.987 211.901 240.607C201.75 258.843 186.314 284.619 165.593 317.934L154.077 312.672C163.12 282.876 170.536 261.841 176.323 249.566C186.233 228.55 195.525 210.552 199.436 204.212C204.602 195.838 212.981 196.949 218.884 201.096Z" fill="#96673C"/>
<path fill-rule="evenodd" clip-rule="evenodd" d="M154.9 296.125L194.427 202.487C203.897 187.255 230.446 205.587 227.217 214.422C219.886 234.479 182.6 299.414 180.415 305.39L154.9 296.125Z" fill="#E81C16"/>
<path fill-rule="evenodd" clip-rule="evenodd" d="M245 213.177C245 239.718 233.366 302.106 233.358 307.95L205.176 307C210.102 252.757 212.18 225.452 211.409 225.084C209.673 224.257 140.262 234.691 119.445 235.479C89.4259 236.615 77.0077 218.199 76 183.251H134.148C183.869 189.186 216.548 193.314 232.185 195.634C242.226 197.125 245 205.865 245 213.177Z" fill="#FF544E"/>
<path fill-rule="evenodd" clip-rule="evenodd" d="M152.518 309.736C150.71 312.363 149.627 314.396 149.268 315.835C148.832 317.585 148.486 320.211 148.233 323.713C150.262 324.219 168.504 328.767 202.959 337.358C205.553 333.011 205.365 330.268 202.395 329.129C199.424 327.99 196.963 327.017 195.012 326.209L172.403 308.528C171.968 308.188 171.339 308.264 170.999 308.7C170.993 308.707 170.987 308.714 170.982 308.722L168.358 312.281C165.192 312.897 162.722 312.984 160.948 312.542C159.507 312.182 157.663 311.104 155.414 309.308L155.414 309.308C154.551 308.618 153.293 308.759 152.603 309.622C152.573 309.659 152.545 309.697 152.518 309.736Z" fill="#E4E4E4"/>
<path fill-rule="evenodd" clip-rule="evenodd" d="M209.678 319.402C208.559 322.388 208 324.623 208 326.106C208 327.909 208.3 330.54 208.901 334C210.993 334 229.794 334 265.303 334C266.769 329.155 265.923 326.539 262.765 326.152C259.607 325.766 256.984 325.417 254.895 325.106L228.68 313.419C228.176 313.194 227.584 313.421 227.359 313.925C227.356 313.934 227.352 313.942 227.348 313.951L225.663 318.039C222.74 319.403 220.364 320.085 218.537 320.085C217.052 320.085 215.001 319.485 212.384 318.285L212.384 318.285C211.38 317.825 210.193 318.266 209.733 319.27C209.713 319.313 209.695 319.357 209.678 319.402Z" fill="#E4E4E4"/>
<path d="M258.5 334H212.5C210.567 334 209 335.567 209 337.5C209 339.433 210.567 341 212.5 341H258.5C260.433 341 262 339.433 262 337.5C262 335.567 260.433 334 258.5 334Z" fill="#A3DAB9"/>
<path fill-rule="evenodd" clip-rule="evenodd" d="M73 189H180C185.523 189 190 193.477 190 199V248H67C64.7909 248 63 246.209 63 244V199C63 193.477 67.4772 189 73 189Z" fill="#A3DAB9"/>
<path fill-rule="evenodd" clip-rule="evenodd" d="M180 189H182.194C187.091 189 191.268 192.547 192.062 197.38L214 331H203.314" fill="#A3DAB9"/>
<path d="M209 351C218.941 351 227 342.941 227 333C227 323.059 218.941 315 209 315C199.059 315 191 323.059 191 333C191 342.941 199.059 351 209 351Z" fill="#008937"/>
<path fill-rule="evenodd" clip-rule="evenodd" d="M76 349C34.0264 349 0 314.974 0 273C0 231.026 34.0264 197 76 197C117.974 197 152 231.026 152 273C152 314.974 117.974 349 76 349ZM76 335C110.242 335 138 307.242 138 273C138 238.758 110.242 211 76 211C41.7583 211 14 238.758 14 273C14 307.242 41.7583 335 76 335Z" fill="#008937"/>
<path d="M80 207H72V339H80V207Z" fill="#008937"/>
<path d="M124.083 227.745L121.255 224.917C120.474 224.136 119.207 224.136 118.426 224.917L27.9168 315.426C27.1357 316.207 27.1357 317.474 27.9168 318.255L30.7452 321.083C31.5262 321.864 32.7926 321.864 33.5736 321.083L124.083 230.574C124.864 229.793 124.864 228.526 124.083 227.745Z" fill="#008937"/>
<path d="M142 275V271C142 269.895 141.105 269 140 269H12C10.8954 269 10 269.895 10 271V275C10 276.105 10.8954 277 12 277H140C141.105 277 142 276.105 142 275Z" fill="#008937"/>
<path d="M121.255 321.083L124.083 318.255C124.864 317.474 124.864 316.207 124.083 315.426L33.5736 224.917C32.7926 224.136 31.5262 224.136 30.7452 224.917L27.9168 227.745C27.1357 228.526 27.1357 229.793 27.9168 230.574L118.426 321.083C119.207 321.864 120.474 321.864 121.255 321.083Z" fill="#008937"/>
<path fill-rule="evenodd" clip-rule="evenodd" d="M177.456 80.3408L215.36 68.9624C222.431 63.4579 229.101 59.4333 235.369 56.8886C237.192 56.5455 240.21 56.7448 236.438 61.023C232.667 65.3012 228.892 69.9709 229.969 71.7648C231.046 73.5587 234.969 72.2064 236.105 75.048C236.862 76.9424 230.362 78.2992 216.605 79.1185L187.134 96.4625L177.456 80.3408ZM174.107 147.168L206.005 170.592C214.657 172.926 221.885 175.831 227.689 179.305C229.06 180.555 230.717 183.085 225.031 182.648C219.345 182.21 213.344 182.006 212.559 183.946C211.774 185.885 215.215 188.205 213.629 190.822C212.572 192.566 207.577 188.192 198.643 177.698L167.055 164.599L174.107 147.168Z" fill="#96673C"/>
<path fill-rule="evenodd" clip-rule="evenodd" d="M124.561 84.0868C141.931 116.476 167.05 141.305 203.466 167.116L189.677 182.663C149.018 167.553 127.559 158.436 117.021 127.835C114.376 120.154 112.528 95.6708 110.942 82.7888L124.561 84.0868Z" fill="#191847"/>
<path fill-rule="evenodd" clip-rule="evenodd" d="M76 192H153C135.558 138.805 126.648 102.296 126.27 82.4715C126.251 81.4609 124.384 79.6799 123.559 79.9132C117.52 81.6188 111.057 80.981 104.172 78C85.9175 107.358 79.6048 143.505 76 192Z" fill="#F2F2F2"/>
<path fill-rule="evenodd" clip-rule="evenodd" d="M110.743 78.0474C132.814 78.2281 168.624 82.2586 209.923 69L214 89.3735C182.787 109.448 151.181 124.999 123.486 122.791C135.512 174.377 134.958 216.606 108.407 216.606C95.7283 216.606 82.0428 216.606 67.3511 216.606C60.8304 172.784 77.9681 112.024 93.856 81.3766C94.4627 80.2063 95.7544 78 98.797 78C101.448 78 105.425 78 110.727 78C110.732 78.0158 110.737 78.0316 110.743 78.0474Z" fill="#2F3676"/>
</svg>
